<svg xmlns="http://www.w3.org/2000/svg" xmlns:xlink="http://www.w3.org/1999/xlink" xmlns:lucid="lucid" width="2688.74" height="1955.69"><g transform="translate(609.1947776272749 319.9888205532035)" lucid:page-tab-id="0_0"><path d="M-1000-500h3500v2500h-3500z" fill="#fafafa"/><path d="M-555.14 1037.05c0 9.4-7.62 17.03-17.03 17.03-9.4 0-17.03-7.62-17.03-17.03 0-9.4 7.63-17.03 17.03-17.03 9.4 0 17.03 7.63 17.03 17.03z" stroke="#5e5e5e" stroke-width="3" fill="#333"/><path d="M-136.86 909.14l56.78-37.4 16.37-9.65 12.12-6.48 11.34-5.45 12.7-5.45 18.1-6.86 18.1-6.2 10.18-3.14 12.07-3.17 13.94-3.05 15.54-2.72 16.67-2.2 17.23-1.55 17.17-.83 16.64-.1 15.74.56 14.7 1.14 13.52 1.63 12.38 2 11.3 2.33 10.26 2.57 9.34 2.76 2.8.94" stroke="#333" stroke-width="2" stroke-linejoin="round" fill="none"/><path d="M-136.3 909.96l-1.02.68-.75-1.9.68-.45z" stroke="#333" stroke-width=".05" fill="#333"/><path d="M232.4 834.28l-15-.75 3.32-8.66z" stroke="#333" stroke-width="2" fill="#333"/><path d="M-133.24 941.97c0 52.5-45.74 95.08-102.17 95.08-56.44 0-102.18-42.57-102.18-95.08 0-52.5 45.74-95.07 102.17-95.07 56.42 0 102.16 42.56 102.16 95.07z" stroke="#5e5e5e" stroke-width="3" fill="#fff"/><use xlink:href="#a" transform="matrix(1,0,0,1,-328.07387474346126,856.404258906697) translate(61.97530864197531 94.76388888888889)"/><path d="M279.6 954.44l-4.98 8.4-6.05 9.32-6.65 9.37-7.3 9.38-7.92 9.4-8.62 9.38-9.32 9.32-10.02 9.2-10.72 9.07-11.4 8.85-12.07 8.58-12.66 8.22-13.2 7.8-13.65 7.33-14 6.76-14.22 6.17-14.35 5.5-14.34 4.85-14.23 4.13-14.02 3.45-13.7 2.77-13.36 2.12-12.92 1.5-12.45.9-11.95.4-11.46-.13-10.95-.57-10.46-.98-9.97-1.37-9.5-1.7-9.06-2.02-8.62-2.3-8.23-2.6-7.86-2.82-7.52-3.05-7.17-3.28-6.85-3.5-6.58-3.7-6.3-3.9-6.06-4.12-5.8-4.32-5.6-4.52-5.38-4.74-5.18-4.97-5-5.2-4.8-5.47-4.65-5.73-4.12-5.53" stroke="#333" stroke-width="2" stroke-linejoin="round" fill="none"/><path d="M280.83 954l.14.06-.54.9-1.72-1 .53-.87z" stroke="#333" stroke-width=".05" fill="#333"/><path d="M-179.87 1027.24l11.62 9.5-7.8 5z" stroke="#333" stroke-width="2" fill="#333"/><path d="M-560.83 1037.26l208.76-61.13M-560.8 1037.25l-1 .3" stroke="#333" stroke-width="2" fill="none"/><path d="M-337.42 971.84l-12.4 8.46-2.6-8.9z" stroke="#333" stroke-width="2" fill="#333"/><path d="M434.4 870.1c0 52.5-45.76 95.07-102.18 95.07-56.43 0-102.18-42.57-102.18-95.08 0-52.52 45.75-95.1 102.18-95.1 56.42 0 102.17 42.58 102.17 95.1z" stroke="#5e5e5e" stroke-width="3" fill="#fff"/><use xlink:href="#b" transform="matrix(1,0,0,1,239.5511518724107,784.5220445912059) translate(69.70987654320987 94.76388888888889)"/><path d="M643.4 1185.17l-8.1-.63-3.42-.4-1.67-.28-.93-.2-.6-.15-.4-.1-.27-.1-.2-.08-.15-.07-.12-.05-.1-.05-.07-.05-.06-.04-.05-.03-.04-.04-.02-.04-.03-.02-.03-.03h-.02l-.02-.03v-.03l-.03-.02v-.02h-.02v-.03l-.02-.02v-.08h-.02v-.16l.02-.03v-.04l.02-.02.03-.03v-.02l.03-.03.02-.03.02-.04.03-.03.03-.03.05-.04.04-.04.07-.05.07-.06.1-.05.13-.07.16-.1.2-.1.3-.14.46-.17.68-.24 1.16-.35 2.17-.56 5.1-1.08 23.04-3.8 152.65-24.4 48.5-10.38 31.75-8.2 22.15-6.74 16.13-5.65 12.1-4.83 9.35-4.18 7.35-3.67 5.9-3.26 4.8-2.92 3.94-2.64 3.3-2.4 2.76-2.2 2.35-2.05 2-1.9 1.74-1.77 1.5-1.68 1.3-1.58 1.13-1.5 1-1.43.86-1.37.76-1.33.66-1.28.4-.87" stroke="#333" stroke-width="2" stroke-linejoin="round" fill="none"/><path d="M643.6 1184.18l.28.34 1.27 1.8-1.86-.16.15-2z" stroke="#333" stroke-width=".05" fill="#333"/><path d="M996.87 1062.2l3.1 14.66-9.22-.98z" stroke="#333" stroke-width="2" fill="#333"/><path d="M660.87 1239.58c0 52.5-45.75 95.08-102.18 95.08-56.44 0-102.18-42.57-102.18-95.08 0-52.5 45.75-95.08 102.17-95.08s102.16 42.57 102.16 95.08z" stroke="#5e5e5e" stroke-width="3" fill="#fff"/><use xlink:href="#c" transform="matrix(1,0,0,1,466.0281307639757,1154.0092133741273) translate(-1.2407407407407476 73.55555555555554)"/><use xlink:href="#d" transform="matrix(1,0,0,1,466.0281307639757,1154.0092133741273) translate(39.50617283950616 110.88888888888889)"/><path d="M436.87 870.26l428.98 74.93" stroke="#333" stroke-width="2" fill="none"/><path d="M437.07 869.28l-.34 1.97-.87-.15.03-1v-.47l-.03-.56z" stroke="#333" stroke-width=".05" fill="#333"/><path d="M880.9 947.82l-14.86 2.1 1.6-9.12z" stroke="#333" stroke-width="2" fill="#333"/><path d="M1025.62 422.63c0 52.5-45.74 95.08-102.17 95.08s-102.17-42.56-102.17-95.07c0-52.5 45.74-95.08 102.17-95.08s102.17 42.57 102.17 95.08z" stroke="#5e5e5e" stroke-width="3" fill="#fff"/><use xlink:href="#e" transform="matrix(1,0,0,1,830.7850174194161,337.0591969750185) translate(39.50617283950616 94.76388888888889)"/><path d="M1028.13 422.65l12.45.26 13.1.83 12.83 1.35 12.63 1.86 12.5 2.4 12.4 2.9 12.45 3.47 12.52 4.08 12.7 4.73 12.97 5.46 13.37 6.3 13.93 7.3 14.7 8.48 15.78 10.02 17.37 12.08 19.9 15.14 24.77 20.53 42.95 38.98 16.07 15.17 9.68 8.8 10.15 8.46 10.75 8.25 11.55 8.1 12.64 8.1 14.22 8.28 16.84 8.9 22.48 10.65 87.72 38.28 11.37 6 8.83 5.13 7.3 4.67 6.3 4.4 5.5 4.22 4.94 4.1 4.47 4.07 4.1 4.04 3.77 4.07 3.52 4.1 3.28 4.2 3.1 4.28 2.9 4.43 2.76 4.6 2.6 4.8 2.48 5.02.4.95" stroke="#333" stroke-width="2" stroke-linejoin="round" fill="none"/><path d="M1028.17 421.65l-.04 2-1.03-.02.02-1v-1z" stroke="#333" stroke-width=".05" fill="#333"/><path d="M1612.63 779.1l-9.4-11.67 8.65-3.3z" stroke="#333" stroke-width="2" fill="#333"/><path d="M1758.8 870.1c0 52.5-45.75 95.07-102.18 95.07-56.43 0-102.17-42.57-102.17-95.08 0-52.52 45.74-95.1 102.17-95.1s102.17 42.58 102.17 95.1z" stroke="#5e5e5e" stroke-width="3" fill="#fff"/><use xlink:href="#f" transform="matrix(1,0,0,1,1563.9558701739352,784.522044591206) translate(1.9135802469135683 94.76388888888889)"/><use xlink:href="#g" transform="matrix(1,0,0,1,1563.9558701739352,784.522044591206) translate(75.45679012345678 94.76388888888889)"/><path d="M881.94 333.05l-1.88-5.2-1.97-6.2-1.72-6.32-1.45-6.42-1.2-6.55-.94-6.7-.67-6.83-.4-7-.08-7.2.2-7.4.54-7.58.88-7.8 1.25-8.04 1.64-8.28 2.07-8.5 2.52-8.77 3-9 3.5-9.22 4.07-9.43 4.62-9.63 5.2-9.77 5.8-9.88 6.42-9.93 7-9.92 7.58-9.8 8.1-9.65 8.58-9.38 9-9.05 9.32-8.62 9.58-8.15 9.76-7.6 9.84-7.06 9.86-6.44 9.82-5.84 9.7-5.25 9.55-4.65 9.36-4.1 9.14-3.53 8.9-3.02 8.67-2.55 8.42-2.1 8.17-1.67 7.94-1.28 7.7-.9 7.48-.58 7.28-.25 7.07.05 6.9.34 6.72.63 6.57.88 6.4 1.15 6.3 1.4 6.2 1.63 1.8.56" stroke="#333" stroke-width="2" stroke-linejoin="round" fill="none"/><path d="M883.22 333.63l-1.87.72-.36-1 1.87-.67z" stroke="#333" stroke-width=".05" fill="#333"/><path d="M1176.43 41.9l-15-.57 3.2-8.7z" stroke="#333" stroke-width="2" fill="#333"/><path d="M1223.63 162.02l-3.75 6.34-4.36 6.72-4.48 6.32-4.64 5.97-4.8 5.7-5.05 5.48-5.3 5.3-5.66 5.2-6.1 5.15-6.65 5.17-7.44 5.28-8.57 5.57-10.46 6.18-14.42 7.7-72.03 35.6-11.03 6.5-9.16 5.94-8 5.7-7.24 5.6-6.66 5.63-6.23 5.73-5.9 5.9-5.62 6.13-3.25 3.84" stroke="#333" stroke-width="2" stroke-linejoin="round" fill="none"/><path d="M1224.88 161.57l.14.07-.54.9-1.72-1 .5-.88z" stroke="#333" stroke-width=".05" fill="#333"/><path d="M987.55 342.78l5-14.14 7.36 5.64z" stroke="#333" stroke-width="2" fill="#333"/><path d="M1378.43 77.67c0 52.5-45.74 95.08-102.17 95.08s-102.17-42.57-102.17-95.08c0-52.5 45.73-95.08 102.16-95.08s102.17 42.56 102.17 95.07z" stroke="#5e5e5e" stroke-width="3" fill="#fff"/><use xlink:href="#h" transform="matrix(1,0,0,1,1183.5963848204083,-7.9000382226855255) translate(17.94444444444443 73.26388888888889)"/><use xlink:href="#i" transform="matrix(1,0,0,1,1183.5963848204083,-7.9000382226855255) translate(69.70987654320987 110.59722222222223)"/><path d="M1370.43 35.05L1389.3 26l18.6-8 17.65-6.7 16.9-5.65 16.33-4.7 15.9-3.84 15.63-3.1 15.47-2.4 15.44-1.73 15.56-1.1 15.8-.44 16.2.22 16.83.94 17.66 1.72 18.84 2.64 20.45 3.75 22.73 5.18 26.14 7.1 31.7 10.08 42.54 15.53 77.94 32.44" stroke="#333" stroke-width="2" stroke-linejoin="round" fill="none"/><path d="M1370.88 35.94l-.9.43-.9-1.78.94-.47z" stroke="#333" stroke-width=".05" fill="#333"/><path d="M1857.6 74l-14.93-1.4 3.68-8.52z" stroke="#333" stroke-width="2" fill="#333"/><path d="M1904.75 194.3l-7.48 12.65-7.74 11.94-7.54 10.6-7.37 9.5-7.22 8.54-7.1 7.74-7.02 7.03-6.98 6.43-6.95 5.88-6.95 5.4-6.97 4.96-7.03 4.57-7.12 4.2-7.22 3.88-7.37 3.58-7.55 3.26-7.76 2.98-8 2.7-8.32 2.4-8.66 2.14-9.07 1.83-9.54 1.5-10.1 1.17-10.77.8-11.54.35-12.47-.13-13.55-.72-14.88-1.4-16.4-2.26-24.96-4.48-24.18-5.4-23.27-6.22-22.27-6.96-21.2-7.63-20.15-8.2-19.08-8.73-18.03-9.18-17.02-9.57-16.05-9.95-15.13-10.27-14.26-10.58-13.43-10.87-12.66-11.16-11.92-11.42-11.23-11.7-7.47-8.48" stroke="#333" stroke-width="2" stroke-linejoin="round" fill="none"/><path d="M1906 193.84l.13.07-.53.92-1.73-1.02.52-.87z" stroke="#333" stroke-width=".05" fill="#333"/><path d="M1346.02 153.28l12.68 8-7.13 5.94z" stroke="#333" stroke-width="2" fill="#333"/><path d="M2059.55 109.94c0 52.5-45.75 95.07-102.17 95.07-56.43 0-102.18-42.55-102.18-95.06 0-52.5 45.75-95.08 102.18-95.08 56.42 0 102.17 42.57 102.17 95.08z" stroke="#5e5e5e" stroke-width="3" fill="#fff"/><use xlink:href="#j" transform="matrix(1,0,0,1,1864.7113824733697,24.366743515025846) translate(39.50617283950616 94.76388888888889)"/><path d="M1914.87 20.74l-6.1-14.86-7.08-15.32-7.66-14.9-8.24-14.54-8.88-14.22-9.53-13.94-10.24-13.7-10.98-13.47-11.78-13.3-12.65-13.1-13.6-12.98-14.66-12.84-15.8-12.7-17.08-12.6-18.48-12.5-20.07-12.35-21.83-12.2-23.8-12.05-26.03-11.82-28.5-11.54-31.35-11.17-34.5-10.7-38.02-10.05-41.97-9.24-46.32-8.18-51.05-6.83-56.12-5.13-61.3-3.02-66.47-.5-71.16 2.47-75 5.73-77.4 9.2-78 12.57-76.47 15.64-72.93 18.13-67.7 19.86-18.92 6.1L616.8-205l-42.4 17.04-44.34 20-46.2 23.24-47.93 26.65-49.36 30.23-50.42 33.87-51 37.43-50.93 40.78L184 68l-48.77 46.25-46.62 48.07-43.85 49.18-40.63 49.58-37.05 49.3-33.33 48.42-29.57 47.08-25.94 45.4-22.47 43.47-19.27 41.44-16.34 39.33-13.67 37.3-11.3 35.26-9.15 33.36-7.25 31.56-5.56 29.9-4.05 28.33-2.7 26.9-1.5 25.6-.06 3.15" stroke="#333" stroke-width="2" stroke-linejoin="round" fill="none"/><path d="M1916.18 21.3l-1.24.5-.6.27-.4-.98 1.84-.77z" stroke="#333" stroke-width=".05" fill="#333"/><path d="M-235.35 842.16l-4.37-14.35 9.27.18z" stroke="#333" stroke-width="2" fill="#333"/><path d="M1235.48-11.77l-17.28-4.7-18.6-4.25-19.08-3.5-19.6-2.77-20.23-2-21-1.17-21.85-.32-22.88.64-24.08 1.67-25.5 2.86-27.12 4.18-29.1 5.75-31.44 7.6L903.4 2l-37.87 12.6-42.46 16.1-48.57 20.82-57.4 27.5-72.34 38.5-113.67 67L315.37 316.6l-34.65 18.47-.9.45-31.16 16.5-29.82 17.4-28.75 18.44-27.95 19.64-27.4 21-27.03 22.6-26.94 24.5-27.07 26.8-27.47 29.56-28.2 33.02-29.34 37.4-31 43.15-33.43 50.92-37.1 62.05-42.97 79.25-1.53 3" stroke="#333" stroke-width="2" stroke-linejoin="round" fill="none"/><path d="M1238.02-12.1l-2.76 1.07.46-1.7z" stroke="#333" stroke-width=".05" fill="#333"/><path d="M-184.27 854.33l2.36-14.8 8.25 4.2z" stroke="#333" stroke-width="2" fill="#333"/><path d="M1686.04 963.73l5.7 20.28 4.08 17.4 3 15.58 2.14 14.52 1.46 13.8.84 13.33.28 12.98-.27 12.75-.8 12.6-1.3 12.54-1.85 12.53-2.4 12.6-2.98 12.7-3.6 12.9-4.27 13.14-5 13.45-5.8 13.8-6.7 14.27-7.73 14.77-8.9 15.4-10.22 16.1-11.77 16.95-13.6 17.9-15.73 19.03-18.3 20.32-21.4 21.85-25.2 23.63-29.82 25.74-35.64 28.22-5.4 4.08-44.67 32.12-39.96 26.25-36.43 21.82-33.8 18.35-31.87 15.6-30.5 13.4-29.6 11.54-29.17 9.96-29.14 8.63-29.6 7.42-30.64 6.33-32.38 5.3-35.22 4.23-39.83 3.1-48 1.72-66.1-.46-152.66-7.74-39.56-3.34-49.34-6.25-60.18-10.18-70.67-15.03-78.66-20.2-82.3-24.82-80.98-28.15-75.66-29.9-68-30.2-59.57-29.53L9 1390.72l-43.95-26.57-37.47-24.85-31.94-23.16-27.26-21.58-23.34-20.1-20.04-18.8-17.26-17.6-14.92-16.54-12.9-15.6-11.23-14.74-9.76-14-8.5-13.37-7.38-12.76-6.42-12.27-5.57-11.82-4.8-11.43-4.14-11.1-3.52-10.78-2.94-10.55-2.43-10.35-1.94-10.17-1.5-10.03-1.05-9.93-.08-1.3" stroke="#333" stroke-width="2" stroke-linejoin="round" fill="none"/><path d="M1687 963.5l-1.9.53-.3-1 1.94-.53z" stroke="#333" stroke-width=".05" fill="#333"/><path d="M-291.95 1026.07l5.2 14.07-9.25.37z" stroke="#333" stroke-width="2" fill="#333"/><path d="M-30.84 751.15a6 6 0 0 1 6-6h208.8a6 6 0 0 1 6 6v49.34a6 6 0 0 1-6 6h-208.8a6 6 0 0 1-6-6z" fill="none"/><use xlink:href="#k" transform="matrix(1,0,0,1,-18.834762701958496,757.1486525558871) translate(0 25.22222222222222)"/><use xlink:href="#l" transform="matrix(1,0,0,1,-18.834762701958496,757.1486525558871) translate(27.654320987654323 25.22222222222222)"/><use xlink:href="#m" transform="matrix(1,0,0,1,-18.834762701958496,757.1486525558871) translate(122.54320987654322 25.22222222222222)"/><path d="M646.1 189.44a6 6 0 0 1 6-6h212.15a6 6 0 0 1 6 6v49.34a6 6 0 0 1-6 6H652.1a6 6 0 0 1-6-6z" fill="none"/><use xlink:href="#n" transform="matrix(1,0,0,1,658.0928720151945,195.4404824017156) translate(0 25.22222222222222)"/><use xlink:href="#l" transform="matrix(1,0,0,1,658.0928720151945,195.4404824017156) translate(31.024691358024697 25.22222222222222)"/><use xlink:href="#m" transform="matrix(1,0,0,1,658.0928720151945,195.4404824017156) translate(125.9135802469136 25.22222222222222)"/><path d="M1378.43 577.9a6 6 0 0 1 6-6h413.1a6 6 0 0 1 6 6v49.33a6 6 0 0 1-6 6h-413.1a6 6 0 0 1-6-6z" fill="none"/><use xlink:href="#o" transform="matrix(1,0,0,1,1390.4336752063066,583.8895025967012) translate(0 25.22222222222222)"/><use xlink:href="#l" transform="matrix(1,0,0,1,1390.4336752063066,583.8895025967012) translate(29.382716049382722 25.22222222222222)"/><use xlink:href="#p" transform="matrix(1,0,0,1,1390.4336752063066,583.8895025967012) translate(124.27160493827162 25.22222222222222)"/><use xlink:href="#q" transform="matrix(1,0,0,1,1390.4336752063066,583.8895025967012) translate(207.14814814814815 25.22222222222222)"/><use xlink:href="#r" transform="matrix(1,0,0,1,1390.4336752063066,583.8895025967012) translate(224.4320987654321 25.22222222222222)"/><path d="M-11 1142.14a6 6 0 0 1 6-6h169.12a6 6 0 0 1 6 6v49.34a6 6 0 0 1-6 6H-5a6 6 0 0 1-6-6z" fill="none"/><use xlink:href="#k" transform="matrix(1,0,0,1,0.9985706313748324,1148.1416596144222) translate(0 25.22222222222222)"/><use xlink:href="#l" transform="matrix(1,0,0,1,0.9985706313748324,1148.1416596144222) translate(27.654320987654323 25.22222222222222)"/><use xlink:href="#s" transform="matrix(1,0,0,1,0.9985706313748324,1148.1416596144222) translate(122.54320987654322 25.22222222222222)"/><path d="M843.96 359.17l-2.73-2.2-3.57-2.65-3.64-2.47-3.73-2.3-3.84-2.16-3.95-2-4.07-1.88-4.24-1.73-4.43-1.6-4.63-1.44-4.87-1.3-5.14-1.14-5.46-.98-5.82-.8-6.25-.57-6.75-.35-7.35-.06-8.04.26-8.9.66-9.93 1.17-11.22 1.8-12.83 2.6-14.95 3.7-17.8 5.2-21.8 7.38-27.97 10.8-38.87 16.92-67.63 33L314.1 525.7 95.5 634.12 56.92 655.7l-34 20.6L.58 691.23l-18.57 13.55-16.5 13.15-15.15 13.16-14.2 13.42-13.5 13.87-12.97 14.5-12.54 15.25-12.2 16.2-11.97 17.32-11.75 18.63-11.56 20.17" stroke="#333" stroke-width="2" stroke-linejoin="round" fill="none"/><path d="M845.43 359.07l-1.38 1.45-.74-.6 1.26-1.54z" stroke="#333" stroke-width=".05" fill="#333"/><path d="M-157.4 873.95l2.53-14.78 8.2 4.3z" stroke="#333" stroke-width="2" fill="#333"/><path d="M1058.68 818.3a6 6 0 0 1 6-6h372.8a6 6 0 0 1 6 6v49.33a6 6 0 0 1-6 6h-372.8a6 6 0 0 1-6-6z" fill="none"/><use xlink:href="#o" transform="matrix(1,0,0,1,1070.6801889252163,824.2900865715635) translate(0 25.22222222222222)"/><use xlink:href="#l" transform="matrix(1,0,0,1,1070.6801889252163,824.2900865715635) translate(29.382716049382722 25.22222222222222)"/><use xlink:href="#t" transform="matrix(1,0,0,1,1070.6801889252163,824.2900865715635) translate(124.27160493827162 25.22222222222222)"/><use xlink:href="#q" transform="matrix(1,0,0,1,1070.6801889252163,824.2900865715635) translate(167.4814814814815 25.22222222222222)"/><use xlink:href="#u" transform="matrix(1,0,0,1,1070.6801889252163,824.2900865715635) translate(184.76543209876544 25.22222222222222)"/><path d="M1099.57 257.6a6 6 0 0 1 6-6h172.5a6 6 0 0 1 6 6v49.34a6 6 0 0 1-6 6h-172.5a6 6 0 0 1-6-6z" fill="none"/><use xlink:href="#n" transform="matrix(1,0,0,1,1111.5683141565087,263.60201582861464) translate(0 25.22222222222222)"/><use xlink:href="#l" transform="matrix(1,0,0,1,1111.5683141565087,263.60201582861464) translate(31.024691358024697 25.22222222222222)"/><use xlink:href="#s" transform="matrix(1,0,0,1,1111.5683141565087,263.60201582861464) translate(125.9135802469136 25.22222222222222)"/><path d="M109.32 1279.3a6 6 0 0 1 6-6h169.12a6 6 0 0 1 6 6v49.36a6 6 0 0 1-6 6H115.32a6 6 0 0 1-6-6z" fill="none"/><use xlink:href="#k" transform="matrix(1,0,0,1,121.3233305855972,1285.3125447612952) translate(0 25.22222222222222)"/><use xlink:href="#l" transform="matrix(1,0,0,1,121.3233305855972,1285.3125447612952) translate(27.654320987654323 25.22222222222222)"/><use xlink:href="#s" transform="matrix(1,0,0,1,121.3233305855972,1285.3125447612952) translate(122.54320987654322 25.22222222222222)"/><path d="M1454.27 1473.04a6 6 0 0 1 6-6h169.12a6 6 0 0 1 6 6v49.34a6 6 0 0 1-6 6h-169.13a6 6 0 0 1-6-6z" fill="none"/><use xlink:href="#k" transform="matrix(1,0,0,1,1466.26695355676,1479.0407720395456) translate(0 25.22222222222222)"/><use xlink:href="#l" transform="matrix(1,0,0,1,1466.26695355676,1479.0407720395456) translate(27.654320987654323 25.22222222222222)"/><use xlink:href="#s" transform="matrix(1,0,0,1,1466.26695355676,1479.0407720395456) translate(122.54320987654322 25.22222222222222)"/><path d="M384.24 85.27a6 6 0 0 1 6-6h169.12a6 6 0 0 1 6 6v49.34a6 6 0 0 1-6 6H390.24a6 6 0 0 1-6-6z" fill="none"/><use xlink:href="#k" transform="matrix(1,0,0,1,396.2407907242441,91.2645496107018) translate(0 25.22222222222222)"/><use xlink:href="#l" transform="matrix(1,0,0,1,396.2407907242441,91.2645496107018) translate(27.654320987654323 25.22222222222222)"/><use xlink:href="#s" transform="matrix(1,0,0,1,396.2407907242441,91.2645496107018) translate(122.54320987654322 25.22222222222222)"/><path d="M731.4-222.56a6 6 0 0 1 6-6h169.1a6 6 0 0 1 6 6v49.34a6 6 0 0 1-6 6H737.4a6 6 0 0 1-6-6z" fill="none"/><use xlink:href="#k" transform="matrix(1,0,0,1,743.3902483450316,-216.55906515849455) translate(0 25.22222222222222)"/><use xlink:href="#l" transform="matrix(1,0,0,1,743.3902483450316,-216.55906515849455) translate(27.654320987654323 25.22222222222222)"/><use xlink:href="#s" transform="matrix(1,0,0,1,743.3902483450316,-216.55906515849455) translate(122.54320987654322 25.22222222222222)"/><path d="M241.66 423.14a6 6 0 0 1 6-6h169.12a6 6 0 0 1 6 6v49.35a6 6 0 0 1-6 6H247.66a6 6 0 0 1-6-6z" fill="none"/><use xlink:href="#k" transform="matrix(1,0,0,1,253.65538191189637,429.14516429625377) translate(0 25.22222222222222)"/><use xlink:href="#l" transform="matrix(1,0,0,1,253.65538191189637,429.14516429625377) translate(27.654320987654323 25.22222222222222)"/><use xlink:href="#s" transform="matrix(1,0,0,1,253.65538191189637,429.14516429625377) translate(122.54320987654322 25.22222222222222)"/><path d="M487.03 639.23a6 6 0 0 1 6-6h378.6a6 6 0 0 1 6 6v49.35a6 6 0 0 1-6 6h-378.6a6 6 0 0 1-6-6z" fill="none"/><use xlink:href="#v" transform="matrix(1,0,0,1,499.03163836962136,645.2328359300345) translate(0 25.22222222222222)"/><use xlink:href="#w" transform="matrix(1,0,0,1,499.03163836962136,645.2328359300345) translate(77.69135802469137 25.22222222222222)"/><use xlink:href="#x" transform="matrix(1,0,0,1,499.03163836962136,645.2328359300345) translate(122.62962962962965 25.22222222222222)"/><use xlink:href="#q" transform="matrix(1,0,0,1,499.03163836962136,645.2328359300345) translate(200.32098765432102 25.22222222222222)"/><use xlink:href="#y" transform="matrix(1,0,0,1,499.03163836962136,645.2328359300345) translate(217.60493827160496 25.22222222222222)"/><path d="M255.2 1094.57a6 6 0 0 1 6-6h173.26a6 6 0 0 1 6 6v49.34a6 6 0 0 1-6 6H261.2a6 6 0 0 1-6-6z" fill="none"/><g><use xlink:href="#z" transform="matrix(1,0,0,1,267.18726111143314,1100.5689603698345) translate(0 25.22222222222222)"/><use xlink:href="#A" transform="matrix(1,0,0,1,267.18726111143314,1100.5689603698345) translate(84.51851851851852 25.22222222222222)"/><use xlink:href="#B" transform="matrix(1,0,0,1,267.18726111143314,1100.5689603698345) translate(111.30864197530865 25.22222222222222)"/></g><path d="M1088.73 962.9c0 52.52-45.74 95.1-102.17 95.1S884.4 1015.4 884.4 962.9c0-52.5 45.73-95.06 102.16-95.06s102.17 42.56 102.17 95.07z" stroke="#5e5e5e" stroke-width="3" fill="#fff"/><g><use xlink:href="#C" transform="matrix(1,0,0,1,893.8975400390244,877.3430384183697) translate(16.820987654320987 73.26388888888889)"/><use xlink:href="#D" transform="matrix(1,0,0,1,893.8975400390244,877.3430384183697) translate(71.43827160493827 110.59722222222223)"/></g><path d="M940.04 875.53l-76.6-358.75" stroke="#333" stroke-width="2" fill="none"/><path d="M941.18 876.1l-1.82.8-.04.02-.26-1.2 1.95-.43z" stroke="#333" stroke-width=".05" fill="#333"/><path d="M860.25 501.85l7.5 13-9.05 1.92z" stroke="#333" stroke-width="2" fill="#333"/><path d="M686.92 1176.5a6 6 0 0 1 6-6h359.76a6 6 0 0 1 6 6v49.34a6 6 0 0 1-6 6H692.92a6 6 0 0 1-6-6z" fill="none"/><g><use xlink:href="#z" transform="matrix(1,0,0,1,698.9171025054632,1182.5002375892084) translate(0 25.22222222222222)"/><use xlink:href="#E" transform="matrix(1,0,0,1,698.9171025054632,1182.5002375892084) translate(84.51851851851852 25.22222222222222)"/><use xlink:href="#F" transform="matrix(1,0,0,1,698.9171025054632,1182.5002375892084) translate(111.30864197530865 25.22222222222222)"/><use xlink:href="#q" transform="matrix(1,0,0,1,698.9171025054632,1182.5002375892084) translate(169.90123456790124 25.22222222222222)"/><use xlink:href="#G" transform="matrix(1,0,0,1,698.9171025054632,1182.5002375892084) translate(187.1851851851852 25.22222222222222)"/></g><path d="M1080.48 1005.52l5.67 13.33 5.18 13.73 4.37 13.25 3.64 12.8 2.97 12.4 2.36 12 1.77 11.67 1.24 11.33.75 11.04.27 10.76-.18 10.52-.6 10.3-1.02 10.1-1.42 9.9-1.8 9.77-2.22 9.62-2.6 9.5-3.02 9.4-3.4 9.3-3.85 9.23-4.28 9.18-4.72 9.13-5.2 9.12-5.73 9.1-6.26 9.08-6.84 9.1-7.48 9.13-8.16 9.15-8.92 9.2-9.74 9.2-10.65 9.3-11.65 9.3-12.77 9.36-14 9.4-15.42 9.43-16.98 9.43-18.75 9.4-20.75 9.34-23.02 9.23-25.6 9.03-28.6 8.76-31.96 8.35-35.88 7.77-40.4 7-45.64 5.95-18.13 1.84-133.47 10.02-87.88 2.82-65.3-.64-50.35-2.62-39.83-3.75-32.12-4.4-26.34-4.73-21.9-4.9-18.47-4.93-15.72-4.92-13.52-4.86-11.74-4.8-10.26-4.7-7.1-3.56-30.2-16.73-44.57-27.15-53.82-35.9-52.57-38.28-44.5-35.33-35.14-30.37-27.03-25.4-20.7-21.18-15.92-17.7-12.33-14.94-9.65-12.74-7.62-10.97-6.05-9.55-4.83-8.4-3.9-7.44-3.1-6.66-2.53-6-2.03-5.44-1.6-4.98-1.28-4.57-1-4.23-.74-3.94-.54-3.68-.36-3.46-.2-3.26-.04-2.06" stroke="#333" stroke-width="2" stroke-linejoin="round" fill="none"/><path d="M1081.4 1005.15l-1.83.8-.08-.18 1.17-2.35z" stroke="#333" stroke-width=".05" fill="#333"/><path d="M-263.3 1038.32l2.83 14.73-9.2-1.15z" stroke="#333" stroke-width="2" fill="#333"/><path d="M620.46 1473.04a6 6 0 0 1 6-6h169.12a6 6 0 0 1 6 6v49.34a6 6 0 0 1-6 6H626.46a6 6 0 0 1-6-6z" fill="none"/><g><use xlink:href="#k" transform="matrix(1,0,0,1,632.4590174472482,1479.0407720395456) translate(0 25.22222222222222)"/><use xlink:href="#l" transform="matrix(1,0,0,1,632.4590174472482,1479.0407720395456) translate(27.654320987654323 25.22222222222222)"/><use xlink:href="#s" transform="matrix(1,0,0,1,632.4590174472482,1479.0407720395456) translate(122.54320987654322 25.22222222222222)"/></g><path d="M1332.3-64.19a6 6 0 0 1 6-5.98h521.27a6 6 0 0 1 6 6v49.34a6 6 0 0 1-6 6H1338.3a6 6 0 0 1-6-6z" fill="none"/><g><use xlink:href="#H" transform="matrix(1,0,0,1,1344.285472075278,-58.18457086029865) translate(0 25.22222222222222)"/><use xlink:href="#I" transform="matrix(1,0,0,1,1344.285472075278,-58.18457086029865) translate(62.13580246913581 25.22222222222222)"/><use xlink:href="#q" transform="matrix(1,0,0,1,1344.285472075278,-58.18457086029865) translate(307.2222222222222 25.22222222222222)"/><use xlink:href="#J" transform="matrix(1,0,0,1,1344.285472075278,-58.18457086029865) translate(324.5061728395061 25.22222222222222)"/></g><path d="M1430.12 333.55a6 6 0 0 1 6-6h417.06a6 6 0 0 1 6 6v49.34a6 6 0 0 1-6 6h-417.06a6 6 0 0 1-6-6z" fill="none"/><g><use xlink:href="#H" transform="matrix(1,0,0,1,1442.1195892034798,339.5514777792026) translate(0 25.22222222222222)"/><use xlink:href="#K" transform="matrix(1,0,0,1,1442.1195892034798,339.5514777792026) translate(62.13580246913581 25.22222222222222)"/><use xlink:href="#q" transform="matrix(1,0,0,1,1442.1195892034798,339.5514777792026) translate(203.60493827160496 25.22222222222222)"/><use xlink:href="#L" transform="matrix(1,0,0,1,1442.1195892034798,339.5514777792026) translate(220.8888888888889 25.22222222222222)"/></g><path d="M377.34 950.94l8.23 17.9 8.76 21.4 12.65 35.35 17.4 49.9 6.2 15.16 5.47 11.93 5.32 10.4 5.42 9.58 5.66 9.1 6.06 8.9 6.6 8.86 7.17 8.82" stroke="#333" stroke-width="2" stroke-linejoin="round" fill="none"/><path d="M377.36 950.96l-.43-.93" stroke="#333" stroke-width="2" fill="none"/><path d="M482.5 1169.6l-13-7.5 6.9-6.2z" stroke="#333" stroke-width="2" fill="#333"/><path d="M454 1239.6l-338.26 6.38-39.32-2.44-30.67-3.2-25.18-3.7-21.33-4.06-18.47-4.32-16.26-4.53-14.47-4.7-13.05-4.85-11.86-5-10.87-5.1-10-5.23-9.3-5.36-8.66-5.5-8.12-5.64-7.63-5.8-7.2-5.95-6.84-6.14-6.48-6.35-6.18-6.58-5.9-6.85-5.66-7.13-5.43-7.46-5.2-7.83-5-8.24-4.77-8.7-4.6-9.24-4.37-9.85-4.16-10.53-3.95-11.34-3.07-10.16" stroke="#333" stroke-width="2" stroke-linejoin="round" fill="none"/><path d="M455.02 1239.56v.48l.02.54-1.04.02-.03-2 1.07-.02z" stroke="#333" stroke-width=".05" fill="#333"/><path d="M-212.1 1039.4l8.07 12.65-8.98 2.32z" stroke="#333" stroke-width="2" fill="#333"/><path d="M487.03 833.52a6 6 0 0 1 6-6H852.8a6 6 0 0 1 6 6v49.35a6 6 0 0 1-6 6H493.02a6 6 0 0 1-6-6z" fill="none"/><g><use xlink:href="#z" transform="matrix(1,0,0,1,499.03163836962136,839.5238317208398) translate(0 25.22222222222222)"/><use xlink:href="#E" transform="matrix(1,0,0,1,499.03163836962136,839.5238317208398) translate(84.51851851851852 25.22222222222222)"/><use xlink:href="#F" transform="matrix(1,0,0,1,499.03163836962136,839.5238317208398) translate(111.30864197530865 25.22222222222222)"/><use xlink:href="#q" transform="matrix(1,0,0,1,499.03163836962136,839.5238317208398) translate(169.90123456790124 25.22222222222222)"/><use xlink:href="#G" transform="matrix(1,0,0,1,499.03163836962136,839.5238317208398) translate(187.1851851851852 25.22222222222222)"/></g><path d="M1553.67 880.98l-24.96-14.9-28.23-15.28-31.9-15.55-38.1-16.65-52.8-20.42-184.15-65.64-28.2-12.3-22.06-10.76-18.43-9.97-16-9.53-14.25-9.33-12.92-9.26-11.87-9.28-11.04-9.4-10.35-9.6-9.76-9.84-9.3-10.2-8.9-10.6-8.53-11.1-8.23-11.7-8-12.42-7.74-13.24-7.54-14.2-7.36-15.38-2.42-5.64" stroke="#333" stroke-width="2" stroke-linejoin="round" fill="none"/><path d="M1553.65 880.96l.88.53" stroke="#333" stroke-width="2" fill="none"/><path d="M964.76 514.68l9.76 11.4-8.56 3.55z" stroke="#333" stroke-width="2" fill="#333"/><defs><path fill="#333" d="M140-251c81 0 123 46 123 126C263-46 219 4 140 4 59 4 17-45 17-125s42-126 123-126zm0 227c63 0 89-41 89-101s-29-99-89-99c-61 0-89 39-89 99S79-25 140-24" id="M"/><path fill="#333" d="M63-220v92h138v28H63V0H30v-248h175v28H63" id="N"/><g id="a"><use transform="matrix(0.08641975308641976,0,0,0.08641975308641976,0,0)" xlink:href="#M"/><use transform="matrix(0.08641975308641976,0,0,0.08641975308641976,24.19753086419753,0)" xlink:href="#N"/><use transform="matrix(0.08641975308641976,0,0,0.08641975308641976,43.123456790123456,0)" xlink:href="#N"/></g><path fill="#333" d="M190 0L58-211 59 0H30v-248h39L202-35l-2-213h31V0h-41" id="O"/><g id="b"><use transform="matrix(0.08641975308641976,0,0,0.08641975308641976,0,0)" xlink:href="#M"/><use transform="matrix(0.08641975308641976,0,0,0.08641975308641976,24.19753086419753,0)" xlink:href="#O"/></g><path fill="#333" d="M266 0h-40l-56-210L115 0H75L2-248h35L96-30l15-64 43-154h32l59 218 59-218h35" id="P"/><path fill="#333" d="M205 0l-28-72H64L36 0H1l101-248h38L239 0h-34zm-38-99l-47-123c-12 45-31 82-46 123h93" id="Q"/><path fill="#333" d="M127-220V0H93v-220H8v-28h204v28h-85" id="R"/><path fill="#333" d="M30 0v-248h187v28H63v79h144v27H63v87h162V0H30" id="S"/><path fill="#333" d="M233-177c-1 41-23 64-60 70L243 0h-38l-65-103H63V0H30v-248c88 3 205-21 203 71zM63-129c60-2 137 13 137-47 0-61-80-42-137-45v92" id="T"/><path fill="#333" d="M194 0L95-120 63-95V0H30v-248h33v124l119-124h40L117-140 236 0h-42" id="U"/><g id="c"><use transform="matrix(0.08641975308641976,0,0,0.08641975308641976,0,0)" xlink:href="#P"/><use transform="matrix(0.08641975308641976,0,0,0.08641975308641976,28.172839506172842,0)" xlink:href="#Q"/><use transform="matrix(0.08641975308641976,0,0,0.08641975308641976,46.580246913580254,0)" xlink:href="#R"/><use transform="matrix(0.08641975308641976,0,0,0.08641975308641976,65.50617283950618,0)" xlink:href="#S"/><use transform="matrix(0.08641975308641976,0,0,0.08641975308641976,86.24691358024693,0)" xlink:href="#T"/><use transform="matrix(0.08641975308641976,0,0,0.08641975308641976,108.0246913580247,0)" xlink:href="#R"/><use transform="matrix(0.08641975308641976,0,0,0.08641975308641976,124.61728395061729,0)" xlink:href="#Q"/><use transform="matrix(0.08641975308641976,0,0,0.08641975308641976,145.35802469135805,0)" xlink:href="#O"/><use transform="matrix(0.08641975308641976,0,0,0.08641975308641976,167.74074074074076,0)" xlink:href="#U"/></g><path fill="#333" d="M240 0l2-218c-23 76-54 145-80 218h-23L58-218 59 0H30v-248h44l77 211c21-75 51-140 76-211h43V0h-30" id="V"/><path fill="#333" d="M30-248c87 1 191-15 191 75 0 78-77 80-158 76V0H30v-248zm33 125c57 0 124 11 124-50 0-59-68-47-124-48v98" id="W"/><path fill="#333" d="M137-103V0h-34v-103L8-248h37l75 118 75-118h37" id="X"/><g id="d"><use transform="matrix(0.08641975308641976,0,0,0.08641975308641976,0,0)" xlink:href="#S"/><use transform="matrix(0.08641975308641976,0,0,0.08641975308641976,20.740740740740744,0)" xlink:href="#V"/><use transform="matrix(0.08641975308641976,0,0,0.08641975308641976,46.580246913580254,0)" xlink:href="#W"/><use transform="matrix(0.08641975308641976,0,0,0.08641975308641976,67.320987654321,0)" xlink:href="#R"/><use transform="matrix(0.08641975308641976,0,0,0.08641975308641976,86.24691358024693,0)" xlink:href="#X"/></g><path fill="#333" d="M30-248c118-7 216 8 213 122C240-48 200 0 122 0H30v-248zM63-27c89 8 146-16 146-99s-60-101-146-95v194" id="Y"/><g id="e"><use transform="matrix(0.08641975308641976,0,0,0.08641975308641976,0,0)" xlink:href="#T"/><use transform="matrix(0.08641975308641976,0,0,0.08641975308641976,22.38271604938272,0)" xlink:href="#S"/><use transform="matrix(0.08641975308641976,0,0,0.08641975308641976,43.12345679012346,0)" xlink:href="#Q"/><use transform="matrix(0.08641975308641976,0,0,0.08641975308641976,63.8641975308642,0)" xlink:href="#Y"/><use transform="matrix(0.08641975308641976,0,0,0.08641975308641976,86.24691358024693,0)" xlink:href="#X"/></g><path fill="#333" d="M197 0v-115H63V0H30v-248h33v105h134v-105h34V0h-34" id="Z"/><g id="f"><use transform="matrix(0.08641975308641976,0,0,0.08641975308641976,0,0)" xlink:href="#Z"/><use transform="matrix(0.08641975308641976,0,0,0.08641975308641976,22.38271604938272,0)" xlink:href="#M"/><use transform="matrix(0.08641975308641976,0,0,0.08641975308641976,46.580246913580254,0)" xlink:href="#R"/></g><g id="g"><use transform="matrix(0.08641975308641976,0,0,0.08641975308641976,0,0)" xlink:href="#P"/><use transform="matrix(0.08641975308641976,0,0,0.08641975308641976,28.172839506172842,0)" xlink:href="#Q"/><use transform="matrix(0.08641975308641976,0,0,0.08641975308641976,46.580246913580254,0)" xlink:href="#R"/><use transform="matrix(0.08641975308641976,0,0,0.08641975308641976,65.50617283950618,0)" xlink:href="#S"/><use transform="matrix(0.08641975308641976,0,0,0.08641975308641976,86.24691358024693,0)" xlink:href="#T"/></g><path fill="#333" d="M185-189c-5-48-123-54-124 2 14 75 158 14 163 119 3 78-121 87-175 55-17-10-28-26-33-46l33-7c5 56 141 63 141-1 0-78-155-14-162-118-5-82 145-84 179-34 5 7 8 16 11 25" id="aa"/><g id="h"><use transform="matrix(0.08641975308641976,0,0,0.08641975308641976,0,0)" xlink:href="#aa"/><use transform="matrix(0.08641975308641976,0,0,0.08641975308641976,20.740740740740744,0)" xlink:href="#R"/><use transform="matrix(0.08641975308641976,0,0,0.08641975308641976,39.66666666666667,0)" xlink:href="#S"/><use transform="matrix(0.08641975308641976,0,0,0.08641975308641976,60.407407407407426,0)" xlink:href="#Q"/><use transform="matrix(0.08641975308641976,0,0,0.08641975308641976,81.14814814814817,0)" xlink:href="#V"/><use transform="matrix(0.08641975308641976,0,0,0.08641975308641976,106.98765432098766,0)" xlink:href="#S"/><use transform="matrix(0.08641975308641976,0,0,0.08641975308641976,127.72839506172843,0)" xlink:href="#T"/></g><g id="i"><use transform="matrix(0.08641975308641976,0,0,0.08641975308641976,0,0)" xlink:href="#M"/><use transform="matrix(0.08641975308641976,0,0,0.08641975308641976,24.19753086419753,0)" xlink:href="#O"/></g><g id="j"><use transform="matrix(0.08641975308641976,0,0,0.08641975308641976,0,0)" xlink:href="#aa"/><use transform="matrix(0.08641975308641976,0,0,0.08641975308641976,20.740740740740744,0)" xlink:href="#R"/><use transform="matrix(0.08641975308641976,0,0,0.08641975308641976,39.66666666666667,0)" xlink:href="#S"/><use transform="matrix(0.08641975308641976,0,0,0.08641975308641976,60.407407407407426,0)" xlink:href="#Q"/><use transform="matrix(0.08641975308641976,0,0,0.08641975308641976,81.14814814814817,0)" xlink:href="#V"/></g><use transform="matrix(0.08641975308641976,0,0,0.08641975308641976,0,0)" xlink:href="#Q" id="k"/><path fill="#333" d="M135-143c-3-34-86-38-87 0 15 53 115 12 119 90S17 21 10-45l28-5c4 36 97 45 98 0-10-56-113-15-118-90-4-57 82-63 122-42 12 7 21 19 24 35" id="ab"/><path fill="#333" d="M206 0h-36l-40-164L89 0H53L-1-190h32L70-26l43-164h34l41 164 42-164h31" id="ac"/><path fill="#333" d="M24-231v-30h32v30H24zM24 0v-190h32V0H24" id="ad"/><path fill="#333" d="M59-47c-2 24 18 29 38 22v24C64 9 27 4 27-40v-127H5v-23h24l9-43h21v43h35v23H59v120" id="ae"/><path fill="#333" d="M96-169c-40 0-48 33-48 73s9 75 48 75c24 0 41-14 43-38l32 2c-6 37-31 61-74 61-59 0-76-41-82-99-10-93 101-131 147-64 4 7 5 14 7 22l-32 3c-4-21-16-35-41-35" id="af"/><path fill="#333" d="M106-169C34-169 62-67 57 0H25v-261h32l-1 103c12-21 28-36 61-36 89 0 53 116 60 194h-32v-121c2-32-8-49-39-48" id="ag"/><g id="l"><use transform="matrix(0.08641975308641976,0,0,0.08641975308641976,0,0)" xlink:href="#ab"/><use transform="matrix(0.08641975308641976,0,0,0.08641975308641976,15.555555555555557,0)" xlink:href="#ac"/><use transform="matrix(0.08641975308641976,0,0,0.08641975308641976,37.93827160493828,0)" xlink:href="#ad"/><use transform="matrix(0.08641975308641976,0,0,0.08641975308641976,44.765432098765444,0)" xlink:href="#ae"/><use transform="matrix(0.08641975308641976,0,0,0.08641975308641976,53.407407407407426,0)" xlink:href="#af"/><use transform="matrix(0.08641975308641976,0,0,0.08641975308641976,68.96296296296298,0)" xlink:href="#ag"/></g><path fill="#333" d="M85-194c31 0 48 13 60 33l-1-100h32l1 261h-30c-2-10 0-23-3-31C134-8 116 4 85 4 32 4 16-35 15-94c0-66 23-100 70-100zm9 24c-40 0-46 34-46 75 0 40 6 74 45 74 42 0 51-32 51-76 0-42-9-74-50-73" id="ah"/><path fill="#333" d="M100-194c62-1 85 37 85 99 1 63-27 99-86 99S16-35 15-95c0-66 28-99 85-99zM99-20c44 1 53-31 53-75 0-43-8-75-51-75s-53 32-53 75 10 74 51 75" id="ai"/><path fill="#333" d="M117-194c89-4 53 116 60 194h-32v-121c0-31-8-49-39-48C34-167 62-67 57 0H25l-1-190h30c1 10-1 24 2 32 11-22 29-35 61-36" id="aj"/><g id="m"><use transform="matrix(0.08641975308641976,0,0,0.08641975308641976,0,0)" xlink:href="#ah"/><use transform="matrix(0.08641975308641976,0,0,0.08641975308641976,17.283950617283953,0)" xlink:href="#ai"/><use transform="matrix(0.08641975308641976,0,0,0.08641975308641976,34.567901234567906,0)" xlink:href="#ac"/><use transform="matrix(0.08641975308641976,0,0,0.08641975308641976,56.95061728395062,0)" xlink:href="#aj"/></g><path fill="#333" d="M212-179c-10-28-35-45-73-45-59 0-87 40-87 99 0 60 29 101 89 101 43 0 62-24 78-52l27 14C228-24 195 4 139 4 59 4 22-46 18-125c-6-104 99-153 187-111 19 9 31 26 39 46" id="ak"/><use transform="matrix(0.08641975308641976,0,0,0.08641975308641976,0,0)" xlink:href="#ak" id="n"/><path fill="#333" d="M160-131c35 5 61 23 61 61C221 17 115-2 30 0v-248c76 3 177-17 177 60 0 33-19 50-47 57zm-97-11c50-1 110 9 110-42 0-47-63-36-110-37v79zm0 115c55-2 124 14 124-45 0-56-70-42-124-44v89" id="al"/><use transform="matrix(0.08641975308641976,0,0,0.08641975308641976,0,0)" xlink:href="#al" id="o"/><g id="p"><use transform="matrix(0.08641975308641976,0,0,0.08641975308641976,0,0)" xlink:href="#ah"/><use transform="matrix(0.08641975308641976,0,0,0.08641975308641976,17.283950617283953,0)" xlink:href="#ai"/><use transform="matrix(0.08641975308641976,0,0,0.08641975308641976,34.567901234567906,0)" xlink:href="#ac"/><use transform="matrix(0.08641975308641976,0,0,0.08641975308641976,56.95061728395062,0)" xlink:href="#aj"/></g><path fill="#333" d="M0 4l72-265h28L28 4H0" id="am"/><use transform="matrix(0.08641975308641976,0,0,0.08641975308641976,0,0)" xlink:href="#am" id="q"/><path fill="#333" d="M84 4C-5 8 30-112 23-190h32v120c0 31 7 50 39 49 72-2 45-101 50-169h31l1 190h-30c-1-10 1-25-2-33-11 22-28 36-60 37" id="an"/><path fill="#333" d="M114-163C36-179 61-72 57 0H25l-1-190h30c1 12-1 29 2 39 6-27 23-49 58-41v29" id="ao"/><path fill="#333" d="M141-36C126-15 110 5 73 4 37 3 15-17 15-53c-1-64 63-63 125-63 3-35-9-54-41-54-24 1-41 7-42 31l-33-3c5-37 33-52 76-52 45 0 72 20 72 64v82c-1 20 7 32 28 27v20c-31 9-61-2-59-35zM48-53c0 20 12 33 32 33 41-3 63-29 60-74-43 2-92-5-92 41" id="ap"/><path fill="#333" d="M100-194c63 0 86 42 84 106H49c0 40 14 67 53 68 26 1 43-12 49-29l28 8c-11 28-37 45-77 45C44 4 14-33 15-96c1-61 26-98 85-98zm52 81c6-60-76-77-97-28-3 7-6 17-6 28h103" id="aq"/><g id="r"><use transform="matrix(0.08641975308641976,0,0,0.08641975308641976,0,0)" xlink:href="#ae"/><use transform="matrix(0.08641975308641976,0,0,0.08641975308641976,8.641975308641976,0)" xlink:href="#an"/><use transform="matrix(0.08641975308641976,0,0,0.08641975308641976,25.925925925925927,0)" xlink:href="#ao"/><use transform="matrix(0.08641975308641976,0,0,0.08641975308641976,36.20987654320988,0)" xlink:href="#aj"/><use transform="matrix(0.08641975308641976,0,0,0.08641975308641976,53.49382716049383,0)" xlink:href="#M"/><use transform="matrix(0.08641975308641976,0,0,0.08641975308641976,77.69135802469137,0)" xlink:href="#aj"/><use transform="matrix(0.08641975308641976,0,0,0.08641975308641976,94.97530864197532,0)" xlink:href="#P"/><use transform="matrix(0.08641975308641976,0,0,0.08641975308641976,123.14814814814817,0)" xlink:href="#ap"/><use transform="matrix(0.08641975308641976,0,0,0.08641975308641976,140.4320987654321,0)" xlink:href="#ae"/><use transform="matrix(0.08641975308641976,0,0,0.08641975308641976,149.07407407407408,0)" xlink:href="#aq"/><use transform="matrix(0.08641975308641976,0,0,0.08641975308641976,166.35802469135803,0)" xlink:href="#ao"/></g><path fill="#333" d="M115-194c55 1 70 41 70 98S169 2 115 4C84 4 66-9 55-30l1 105H24l-1-265h31l2 30c10-21 28-34 59-34zm-8 174c40 0 45-34 45-75s-6-73-45-74c-42 0-51 32-51 76 0 43 10 73 51 73" id="ar"/><g id="s"><use transform="matrix(0.08641975308641976,0,0,0.08641975308641976,0,0)" xlink:href="#an"/><use transform="matrix(0.08641975308641976,0,0,0.08641975308641976,17.283950617283953,0)" xlink:href="#ar"/></g><g id="t"><use transform="matrix(0.08641975308641976,0,0,0.08641975308641976,0,0)" xlink:href="#an"/><use transform="matrix(0.08641975308641976,0,0,0.08641975308641976,17.283950617283953,0)" xlink:href="#ar"/></g><path fill="#333" d="M101-234c-31-9-42 10-38 44h38v23H63V0H32v-167H5v-23h27c-7-52 17-82 69-68v24" id="as"/><g id="u"><use transform="matrix(0.08641975308641976,0,0,0.08641975308641976,0,0)" xlink:href="#ae"/><use transform="matrix(0.08641975308641976,0,0,0.08641975308641976,8.641975308641976,0)" xlink:href="#an"/><use transform="matrix(0.08641975308641976,0,0,0.08641975308641976,25.925925925925927,0)" xlink:href="#ao"/><use transform="matrix(0.08641975308641976,0,0,0.08641975308641976,36.20987654320988,0)" xlink:href="#aj"/><use transform="matrix(0.08641975308641976,0,0,0.08641975308641976,53.49382716049383,0)" xlink:href="#M"/><use transform="matrix(0.08641975308641976,0,0,0.08641975308641976,77.69135802469137,0)" xlink:href="#as"/><use transform="matrix(0.08641975308641976,0,0,0.08641975308641976,85.7283950617284,0)" xlink:href="#as"/><use transform="matrix(0.08641975308641976,0,0,0.08641975308641976,94.37037037037038,0)" xlink:href="#P"/><use transform="matrix(0.08641975308641976,0,0,0.08641975308641976,122.54320987654322,0)" xlink:href="#ap"/><use transform="matrix(0.08641975308641976,0,0,0.08641975308641976,139.82716049382717,0)" xlink:href="#ae"/><use transform="matrix(0.08641975308641976,0,0,0.08641975308641976,148.46913580246914,0)" xlink:href="#aq"/><use transform="matrix(0.08641975308641976,0,0,0.08641975308641976,165.7530864197531,0)" xlink:href="#ao"/></g><path fill="#333" d="M210-169c-67 3-38 105-44 169h-31v-121c0-29-5-50-35-48C34-165 62-65 56 0H25l-1-190h30c1 10-1 24 2 32 10-44 99-50 107 0 11-21 27-35 58-36 85-2 47 119 55 194h-31v-121c0-29-5-49-35-48" id="at"/><g id="v"><use transform="matrix(0.08641975308641976,0,0,0.08641975308641976,0,0)" xlink:href="#ae"/><use transform="matrix(0.08641975308641976,0,0,0.08641975308641976,8.641975308641976,0)" xlink:href="#aq"/><use transform="matrix(0.08641975308641976,0,0,0.08641975308641976,25.925925925925927,0)" xlink:href="#at"/><use transform="matrix(0.08641975308641976,0,0,0.08641975308641976,51.765432098765444,0)" xlink:href="#ar"/></g><path fill="#333" d="M18-150v-26h174v26H18zm0 90v-26h174v26H18" id="au"/><g id="w"><use transform="matrix(0.08641975308641976,0,0,0.08641975308641976,0,0)" xlink:href="#au"/><use transform="matrix(0.08641975308641976,0,0,0.08641975308641976,18.14814814814815,0)" xlink:href="#au"/></g><g id="x"><use transform="matrix(0.08641975308641976,0,0,0.08641975308641976,0,0)" xlink:href="#ae"/><use transform="matrix(0.08641975308641976,0,0,0.08641975308641976,8.641975308641976,0)" xlink:href="#ag"/><use transform="matrix(0.08641975308641976,0,0,0.08641975308641976,25.925925925925927,0)" xlink:href="#ao"/><use transform="matrix(0.08641975308641976,0,0,0.08641975308641976,36.20987654320988,0)" xlink:href="#aq"/><use transform="matrix(0.08641975308641976,0,0,0.08641975308641976,53.49382716049383,0)" xlink:href="#ab"/></g><path fill="#333" d="M143 0L79-87 56-68V0H24v-261h32v163l83-92h37l-77 82L181 0h-38" id="av"/><g id="y"><use transform="matrix(0.08641975308641976,0,0,0.08641975308641976,0,0)" xlink:href="#av"/><use transform="matrix(0.08641975308641976,0,0,0.08641975308641976,15.555555555555557,0)" xlink:href="#aq"/><use transform="matrix(0.08641975308641976,0,0,0.08641975308641976,32.839506172839506,0)" xlink:href="#aq"/><use transform="matrix(0.08641975308641976,0,0,0.08641975308641976,50.123456790123456,0)" xlink:href="#ar"/><use transform="matrix(0.08641975308641976,0,0,0.08641975308641976,67.4074074074074,0)" xlink:href="#P"/><use transform="matrix(0.08641975308641976,0,0,0.08641975308641976,95.58024691358025,0)" xlink:href="#ap"/><use transform="matrix(0.08641975308641976,0,0,0.08641975308641976,112.8641975308642,0)" xlink:href="#ao"/><use transform="matrix(0.08641975308641976,0,0,0.08641975308641976,123.14814814814817,0)" xlink:href="#at"/></g><g id="z"><use transform="matrix(0.08641975308641976,0,0,0.08641975308641976,0,0)" xlink:href="#ac"/><use transform="matrix(0.08641975308641976,0,0,0.08641975308641976,22.38271604938272,0)" xlink:href="#ap"/><use transform="matrix(0.08641975308641976,0,0,0.08641975308641976,39.66666666666667,0)" xlink:href="#ae"/><use transform="matrix(0.08641975308641976,0,0,0.08641975308641976,48.308641975308646,0)" xlink:href="#aq"/><use transform="matrix(0.08641975308641976,0,0,0.08641975308641976,65.5925925925926,0)" xlink:href="#ao"/></g><path fill="#333" d="M18-100v-36l175-74v27L42-118l151 64v27" id="aw"/><use transform="matrix(0.08641975308641976,0,0,0.08641975308641976,0,0)" xlink:href="#aw" id="A"/><g id="B"><use transform="matrix(0.08641975308641976,0,0,0.08641975308641976,0,0)" xlink:href="#at"/><use transform="matrix(0.08641975308641976,0,0,0.08641975308641976,25.83950617283951,0)" xlink:href="#ad"/><use transform="matrix(0.08641975308641976,0,0,0.08641975308641976,32.66666666666667,0)" xlink:href="#aj"/></g><path fill="#333" d="M33 0v-248h34V0H33" id="ax"/><path fill="#333" d="M143 4C61 4 22-44 18-125c-5-107 100-154 193-111 17 8 29 25 37 43l-32 9c-13-25-37-40-76-40-61 0-88 39-88 99 0 61 29 100 91 101 35 0 62-11 79-27v-45h-74v-28h105v86C228-13 192 4 143 4" id="ay"/><g id="C"><use transform="matrix(0.08641975308641976,0,0,0.08641975308641976,0,0)" xlink:href="#P"/><use transform="matrix(0.08641975308641976,0,0,0.08641975308641976,28.172839506172842,0)" xlink:href="#Q"/><use transform="matrix(0.08641975308641976,0,0,0.08641975308641976,48.91358024691358,0)" xlink:href="#T"/><use transform="matrix(0.08641975308641976,0,0,0.08641975308641976,71.2962962962963,0)" xlink:href="#V"/><use transform="matrix(0.08641975308641976,0,0,0.08641975308641976,97.13580246913581,0)" xlink:href="#ax"/><use transform="matrix(0.08641975308641976,0,0,0.08641975308641976,105.77777777777779,0)" xlink:href="#O"/><use transform="matrix(0.08641975308641976,0,0,0.08641975308641976,128.1604938271605,0)" xlink:href="#ay"/></g><path fill="#333" d="M232-93c-1 65-40 97-104 97C67 4 28-28 28-90v-158h33c8 89-33 224 67 224 102 0 64-133 71-224h33v155" id="az"/><g id="D"><use transform="matrix(0.08641975308641976,0,0,0.08641975308641976,0,0)" xlink:href="#az"/><use transform="matrix(0.08641975308641976,0,0,0.08641975308641976,22.38271604938272,0)" xlink:href="#W"/></g><path fill="#333" d="M18-27v-27l151-64-151-65v-27l175 74v36" id="aA"/><use transform="matrix(0.08641975308641976,0,0,0.08641975308641976,0,0)" xlink:href="#aA" id="E"/><g id="F"><use transform="matrix(0.08641975308641976,0,0,0.08641975308641976,0,0)" xlink:href="#at"/><use transform="matrix(0.08641975308641976,0,0,0.08641975308641976,25.83950617283951,0)" xlink:href="#ad"/><use transform="matrix(0.08641975308641976,0,0,0.08641975308641976,32.66666666666667,0)" xlink:href="#aj"/></g><g id="G"><use transform="matrix(0.08641975308641976,0,0,0.08641975308641976,0,0)" xlink:href="#ae"/><use transform="matrix(0.08641975308641976,0,0,0.08641975308641976,8.641975308641976,0)" xlink:href="#an"/><use transform="matrix(0.08641975308641976,0,0,0.08641975308641976,25.925925925925927,0)" xlink:href="#ao"/><use transform="matrix(0.08641975308641976,0,0,0.08641975308641976,36.20987654320988,0)" xlink:href="#aj"/><use transform="matrix(0.08641975308641976,0,0,0.08641975308641976,53.49382716049383,0)" xlink:href="#M"/><use transform="matrix(0.08641975308641976,0,0,0.08641975308641976,77.69135802469137,0)" xlink:href="#aj"/><use transform="matrix(0.08641975308641976,0,0,0.08641975308641976,94.97530864197532,0)" xlink:href="#Z"/><use transform="matrix(0.08641975308641976,0,0,0.08641975308641976,117.35802469135804,0)" xlink:href="#aq"/><use transform="matrix(0.08641975308641976,0,0,0.08641975308641976,134.641975308642,0)" xlink:href="#ap"/><use transform="matrix(0.08641975308641976,0,0,0.08641975308641976,151.92592592592595,0)" xlink:href="#ae"/></g><g id="H"><use transform="matrix(0.08641975308641976,0,0,0.08641975308641976,0,0)" xlink:href="#ae"/><use transform="matrix(0.08641975308641976,0,0,0.08641975308641976,8.641975308641976,0)" xlink:href="#an"/><use transform="matrix(0.08641975308641976,0,0,0.08641975308641976,25.925925925925927,0)" xlink:href="#ao"/><use transform="matrix(0.08641975308641976,0,0,0.08641975308641976,36.20987654320988,0)" xlink:href="#aj"/></g><path fill="#333" d="M24 0v-261h32V0H24" id="aB"/><g id="I"><use transform="matrix(0.08641975308641976,0,0,0.08641975308641976,0,0)" xlink:href="#af"/><use transform="matrix(0.08641975308641976,0,0,0.08641975308641976,15.555555555555557,0)" xlink:href="#ai"/><use transform="matrix(0.08641975308641976,0,0,0.08641975308641976,32.839506172839506,0)" xlink:href="#an"/><use transform="matrix(0.08641975308641976,0,0,0.08641975308641976,50.123456790123456,0)" xlink:href="#aj"/><use transform="matrix(0.08641975308641976,0,0,0.08641975308641976,67.4074074074074,0)" xlink:href="#ae"/><use transform="matrix(0.08641975308641976,0,0,0.08641975308641976,76.04938271604938,0)" xlink:href="#aq"/><use transform="matrix(0.08641975308641976,0,0,0.08641975308641976,93.33333333333333,0)" xlink:href="#ao"/><use transform="matrix(0.08641975308641976,0,0,0.08641975308641976,103.61728395061728,0)" xlink:href="#af"/><use transform="matrix(0.08641975308641976,0,0,0.08641975308641976,119.17283950617283,0)" xlink:href="#aB"/><use transform="matrix(0.08641975308641976,0,0,0.08641975308641976,126,0)" xlink:href="#ai"/><use transform="matrix(0.08641975308641976,0,0,0.08641975308641976,143.28395061728395,0)" xlink:href="#af"/><use transform="matrix(0.08641975308641976,0,0,0.08641975308641976,158.8395061728395,0)" xlink:href="#av"/><use transform="matrix(0.08641975308641976,0,0,0.08641975308641976,174.39506172839504,0)" xlink:href="#ac"/><use transform="matrix(0.08641975308641976,0,0,0.08641975308641976,196.77777777777777,0)" xlink:href="#ad"/><use transform="matrix(0.08641975308641976,0,0,0.08641975308641976,203.6049382716049,0)" xlink:href="#ab"/><use transform="matrix(0.08641975308641976,0,0,0.08641975308641976,219.16049382716045,0)" xlink:href="#aq"/></g><g id="J"><use transform="matrix(0.08641975308641976,0,0,0.08641975308641976,0,0)" xlink:href="#ae"/><use transform="matrix(0.08641975308641976,0,0,0.08641975308641976,8.641975308641976,0)" xlink:href="#an"/><use transform="matrix(0.08641975308641976,0,0,0.08641975308641976,25.925925925925927,0)" xlink:href="#ao"/><use transform="matrix(0.08641975308641976,0,0,0.08641975308641976,36.20987654320988,0)" xlink:href="#aj"/><use transform="matrix(0.08641975308641976,0,0,0.08641975308641976,53.49382716049383,0)" xlink:href="#M"/><use transform="matrix(0.08641975308641976,0,0,0.08641975308641976,77.69135802469137,0)" xlink:href="#aj"/><use transform="matrix(0.08641975308641976,0,0,0.08641975308641976,94.97530864197532,0)" xlink:href="#aa"/><use transform="matrix(0.08641975308641976,0,0,0.08641975308641976,115.71604938271606,0)" xlink:href="#ae"/><use transform="matrix(0.08641975308641976,0,0,0.08641975308641976,124.35802469135804,0)" xlink:href="#aq"/><use transform="matrix(0.08641975308641976,0,0,0.08641975308641976,141.641975308642,0)" xlink:href="#ap"/><use transform="matrix(0.08641975308641976,0,0,0.08641975308641976,158.92592592592595,0)" xlink:href="#at"/></g><g id="K"><use transform="matrix(0.08641975308641976,0,0,0.08641975308641976,0,0)" xlink:href="#af"/><use transform="matrix(0.08641975308641976,0,0,0.08641975308641976,15.555555555555557,0)" xlink:href="#aB"/><use transform="matrix(0.08641975308641976,0,0,0.08641975308641976,22.38271604938272,0)" xlink:href="#ai"/><use transform="matrix(0.08641975308641976,0,0,0.08641975308641976,39.66666666666667,0)" xlink:href="#af"/><use transform="matrix(0.08641975308641976,0,0,0.08641975308641976,55.22222222222223,0)" xlink:href="#av"/><use transform="matrix(0.08641975308641976,0,0,0.08641975308641976,70.77777777777779,0)" xlink:href="#ac"/><use transform="matrix(0.08641975308641976,0,0,0.08641975308641976,93.16049382716051,0)" xlink:href="#ad"/><use transform="matrix(0.08641975308641976,0,0,0.08641975308641976,99.98765432098766,0)" xlink:href="#ab"/><use transform="matrix(0.08641975308641976,0,0,0.08641975308641976,115.54320987654322,0)" xlink:href="#aq"/></g><g id="L"><use transform="matrix(0.08641975308641976,0,0,0.08641975308641976,0,0)" xlink:href="#ae"/><use transform="matrix(0.08641975308641976,0,0,0.08641975308641976,8.641975308641976,0)" xlink:href="#an"/><use transform="matrix(0.08641975308641976,0,0,0.08641975308641976,25.925925925925927,0)" xlink:href="#ao"/><use transform="matrix(0.08641975308641976,0,0,0.08641975308641976,36.20987654320988,0)" xlink:href="#aj"/><use transform="matrix(0.08641975308641976,0,0,0.08641975308641976,53.49382716049383,0)" xlink:href="#M"/><use transform="matrix(0.08641975308641976,0,0,0.08641975308641976,77.69135802469137,0)" xlink:href="#as"/><use transform="matrix(0.08641975308641976,0,0,0.08641975308641976,85.7283950617284,0)" xlink:href="#as"/><use transform="matrix(0.08641975308641976,0,0,0.08641975308641976,94.37037037037038,0)" xlink:href="#aa"/><use transform="matrix(0.08641975308641976,0,0,0.08641975308641976,115.11111111111113,0)" xlink:href="#ae"/><use transform="matrix(0.08641975308641976,0,0,0.08641975308641976,123.7530864197531,0)" xlink:href="#aq"/><use transform="matrix(0.08641975308641976,0,0,0.08641975308641976,141.03703703703707,0)" xlink:href="#ap"/><use transform="matrix(0.08641975308641976,0,0,0.08641975308641976,158.32098765432102,0)" xlink:href="#at"/></g></defs></g></svg>